<svg xmlns="http://www.w3.org/2000/svg" width="394" height="394" viewBox="0 0 394 394"><path d="m231.629 6.926 2.368 0.463C272.396 15.07 305.919 33.772 333.977 60.793l1.851 1.755c4.117 3.986 7.68 8.375 11.231 12.866l1.851 2.306c17.635 22.35 29.869 48.373 36.384 76.043l0.444 1.845c3.051 13.605 4.072 27.244 3.981 41.152l-0.007 2.329c-0.055 12.366 -0.76 24.269 -3.407 36.388l-0.513 2.393C379.249 267.688 366.003 295.936 346.289 319.355l-1 1.207C337.194 330.326 328.619 339.259 318.586 347.059l-2.291 1.837c-30.57 24.33 -70.53 40.437 -109.901 40.644l-2.099 0.017c-28.831 0.175 -28.831 0.175 -41.923 -2.482l-2.368 -0.463C121.604 378.93 88.081 360.228 60.023 333.207l-1.851 -1.755c-4.117 -3.986 -7.68 -8.375 -11.231 -12.866l-1.851 -2.306C26.181 292.316 13.601 264.325 7.503 234.466l-0.352 -1.722A183.148 183.148 0 0 1 6.156 227.012l-0.416 -2.602C4.463 215.453 4.31 206.565 4.329 197.529l0.002 -2.363c0.031 -12.464 0.697 -24.426 3.365 -36.642l0.513 -2.393C16.298 119.264 34.744 87.072 60.793 60.023l1.755 -1.851C66.534 54.055 70.923 50.492 75.414 46.941l2.306 -1.851C102.604 25.455 131.333 12.979 162.371 6.926l1.929 -0.389C185.52 2.459 210.465 2.632 231.629 6.926" fill="#03A9F3"/><path d="M321.664 97.73c3.05 1.231 5.107 3.351 7.384 5.645l1.275 1.267q2.078 2.071 4.147 4.15l2.886 2.881a3629.879 3629.879 0 0 1 6.031 6.039 3148.152 3148.152 0 0 0 7.753 7.748q2.978 2.97 5.948 5.948 1.43 1.431 2.861 2.858 1.995 1.99 3.98 3.99l1.207 1.197C367.836 142.186 367.836 142.186 367.836 143.902h1.539c0.977 0.995 0.977 0.995 2.165 2.453 3.783 4.463 7.97 8.518 12.131 12.624L384.766 160.063l1.177 1.015c1.376 1.574 1.561 2.552 1.85 4.609l0.289 2.019 0.27 2.184 0.294 2.281c0.977 8.195 1.127 16.345 1.074 24.589l-0.008 2.329c-0.055 12.366 -0.76 24.269 -3.407 36.388l-0.513 2.393C379.249 267.688 366.003 295.936 346.289 319.355l-1 1.207C337.194 330.326 328.619 339.259 318.586 347.059l-2.291 1.837c-30.689 24.425 -70.833 40.567 -110.362 40.617l-2.211 0.008q-2.293 0.005 -4.586 0.005c-2.333 0.002 -4.666 0.015 -7 0.031q-2.239 0.004 -4.479 0.004l-2.099 0.017 -1.978 -0.008 -1.721 0.004c-4.877 -0.519 -7.738 -2.618 -11.081 -6.033l-1.354 -1.347c-1.493 -1.488 -2.973 -2.986 -4.456 -4.484q-1.604 -1.604 -3.209 -3.208c-2.901 -2.901 -5.794 -5.811 -8.684 -8.723 -3.023 -3.042 -6.055 -6.076 -9.087 -9.111a13123.586 13123.586 0 0 1 -17.194 -17.259 19138.242 19138.242 0 0 0 -19.58 -19.646A42149.535 42149.535 0 0 1 66.949 279.34l1.539 -0.77c1.485 0.604 1.485 0.604 3.313 1.588l2.06 1.082L76.087 282.418c8.034 4.136 16.105 7.318 24.721 10.004l2.922 0.929c6.618 1.999 13.336 3.398 20.164 4.458l2.541 0.4c6.996 1.023 13.805 1.409 20.882 1.38l1.602 -0.004C188.285 299.432 226.015 285.788 254.715 258.563l1.154 -1.077c9.767 -9.173 17.613 -19.596 24.241 -31.243l0.844 -1.481c12.272 -21.74 20.371 -47.675 19.903 -72.785 -0.044 -3.931 0.069 -6.838 2.823 -9.755 2.101 -1.907 4.36 -3.54 6.707 -5.13 1.791 -1.244 3.402 -2.653 5.025 -4.107l1.641 -1.47c2.496 -2.382 4.72 -4.966 6.92 -7.62l2.08 -2.495L327.82 119.277l-1.444 0.469q-3.292 1.068 -6.587 2.128l-2.272 0.739c-12.141 3.899 -12.141 3.899 -18.169 3.59 1.893 -1.972 3.879 -3.767 5.964 -5.531 6.148 -5.382 10.419 -11.006 14.044 -18.325l0.796 -1.563c0.514 -1.013 1.016 -2.033 1.512 -3.054" fill="#088ECB"/><path d="M281.029 104.091c2.08 1.647 4.129 3.304 6.006 5.182 4.471 -0.364 8.443 -1.668 12.65 -3.174l2.024 -0.714c4.993 -1.793 9.862 -3.801 14.684 -6.012C319.986 97.73 319.986 97.73 321.664 97.73c-2.841 11.175 -11.497 21.084 -20.777 27.703 3.85 -0.494 7.585 -1.216 11.351 -2.164l1.616 -0.402c3.99 -1.021 7.811 -2.318 11.628 -3.869C327.051 118.508 327.051 118.508 328.59 119.277l-1.689 1.831q-1.128 1.224 -2.255 2.45l-1.182 1.284c-1.983 2.162 -3.927 4.339 -5.791 6.604 -2.913 3.436 -6.295 6.566 -10.113 8.966 -2.693 1.753 -4.748 3.117 -5.799 6.237 -0.285 2.339 -0.372 4.613 -0.392 6.969a1203.547 1203.547 0 0 1 -0.249 5.2l-0.106 2.609C299.538 190.674 287.619 219.232 270.105 242.402l-1.638 2.209C257.071 259.264 242.91 270.731 227.012 280.109l-1.374 0.823c-23.137 13.707 -50.725 19.35 -77.358 19.377l-1.634 0.002c-9.524 -0.009 -18.775 -0.696 -28.138 -2.503l-1.755 -0.337C98.68 293.863 82.271 286.583 66.18 277.801c2.66 -0.825 5.053 -0.826 7.828 -0.763 15.106 0.385 15.106 0.385 29.879 -2.315l1.962 -0.577c12.232 -3.709 24.572 -8.619 34.951 -16.223C143.133 256.254 143.133 256.254 144.672 256.254v-1.539l-1.837 0.108c-13.596 0.451 -25.139 -5.341 -35.26 -14.164C101.794 234.999 97.377 228.497 94.652 220.855v-1.539l1.327 0.012q3.015 0.022 6.032 0.035l2.087 0.02c3.862 0.014 7.534 -0.108 11.331 -0.837l0.77 -0.77 -1.837 -0.457c-14.447 -3.966 -24.894 -12.797 -32.5 -25.479C77.811 184.447 75.068 175.483 75.414 166.988c2.18 0.707 4.338 1.424 6.456 2.299 5.548 2.232 10.67 2.898 16.63 3.087l-1.467 -1.076c-9.391 -7.157 -17.014 -17.305 -19.695 -29.032 -1.59 -12.813 -1.62 -26.523 5.771 -37.611 3.183 2.634 6.172 5.357 9.025 8.345C119.245 141.274 156.594 154.314 194.691 158.523l-0.369 -2.309c-2.093 -14.807 1.215 -28.289 9.601 -40.761 18.388 -24.022 52.617 -28.727 77.107 -11.362" fill="#FEFEFE"/></svg>